<svg width="74" height="28" viewBox="0 0 74 28" fill="none" xmlns="http://www.w3.org/2000/svg">
<g clip-path="url(#clip0_1_393)">
<g clip-path="url(#clip1_1_393)">
<g clip-path="url(#clip2_1_393)">
<mask id="mask0_1_393" style="mask-type:luminance" maskUnits="userSpaceOnUse" x="0" y="0" width="74" height="28">
<path d="M73.5 0H0.5V28H73.5V0Z" fill="white"/>
</mask>
<g mask="url(#mask0_1_393)">
<path d="M0.5 2.68823V21.9027L3.13594 21.9122V12.7625H9.47235V10.3416H3.12581V5.09957H11.3885V2.68823H0.5ZM16.1129 6.59594C16.57 6.59594 17.0084 6.42523 17.3316 6.12137C17.6548 5.81752 17.8364 5.40539 17.8364 4.97567C17.8364 4.54595 17.6548 4.13383 17.3316 3.82997C17.0084 3.52611 16.57 3.3554 16.1129 3.3554C15.6558 3.3554 15.2174 3.52611 14.8942 3.82997C14.571 4.13383 14.3894 4.54595 14.3894 4.97567C14.3894 5.40539 14.571 5.81752 14.8942 6.12137C15.2174 6.42523 15.6558 6.59594 16.1129 6.59594ZM14.7848 9.00728V21.9122H17.4207V9.00728H14.7848Z" fill="#101010"/>
<path fill-rule="evenodd" clip-rule="evenodd" d="M27.1636 8.63574C23.676 8.63574 21.2429 11.4093 21.2429 14.707C21.2429 18.0047 23.676 20.7782 27.1636 20.7782C28.7654 20.7782 30.0834 20.2064 31.0465 19.2533V20.9688C31.0532 21.4814 30.9518 21.9902 30.7481 22.4657C30.5443 22.9413 30.2424 23.3741 29.8596 23.7393C29.4769 24.1044 29.0209 24.3946 28.5181 24.5931C28.0154 24.7916 27.4757 24.8944 26.9304 24.8956C26.0889 24.8956 25.2576 24.5906 24.5986 24.1522L23.2806 26.2967C24.2998 26.916 25.4778 27.2652 26.6904 27.3075C27.9031 27.3498 29.1054 27.0837 30.1706 26.5371C31.2357 25.9906 32.1242 25.1839 32.7423 24.2022C33.3604 23.2205 33.6852 22.1001 33.6825 20.9593V9.01698H31.0465V10.1702C30.0834 9.21714 28.7654 8.64528 27.1636 8.64528V8.63574ZM23.8687 14.707C23.8687 12.6578 25.5313 11.0471 27.4576 11.0471C29.3839 11.0471 31.0364 12.6673 31.0364 14.707C31.0364 16.7561 29.3737 18.3573 27.4576 18.3573C25.5313 18.3573 23.8687 16.7561 23.8687 14.707Z" fill="#101010"/>
<path d="M43.1517 11.0469C42.3978 11.0594 41.6795 11.3504 41.152 11.857C40.6246 12.3635 40.3305 13.0449 40.3332 13.7537V21.9122H37.6973V9.00724H40.3332V10.1891C40.7276 9.69771 41.2399 9.30087 41.8283 9.03089C42.4168 8.76092 43.0647 8.62546 43.7194 8.63553C45.5646 8.63553 46.9839 9.49332 47.795 10.8086C48.2475 10.1493 48.8668 9.60562 49.5975 9.22639C50.3282 8.84717 51.1475 8.64416 51.9821 8.63553C54.9729 8.63553 56.8484 10.9039 56.8484 13.7156V21.9122H54.2328V13.7442C54.2356 13.0353 53.9414 12.354 53.414 11.8474C52.8866 11.3409 52.1682 11.0499 51.4143 11.0374C50.6605 11.0499 49.9421 11.3409 49.4147 11.8474C48.8873 12.354 48.5931 13.0353 48.5959 13.7442V21.9027H45.96V13.7442C45.9628 13.037 45.6701 12.357 45.1448 11.8507C44.6195 11.3444 43.9038 11.0524 43.1517 11.0374V11.0469Z" fill="#101010"/>
<path fill-rule="evenodd" clip-rule="evenodd" d="M70.8697 10.4749C70.2711 9.88813 69.5515 9.42235 68.7548 9.10606C67.9582 8.78977 67.1013 8.62962 66.2365 8.63541C62.3232 8.63541 59.5453 11.7425 59.5453 15.4596C59.5453 19.1767 62.3232 22.2838 66.2365 22.2838C67.101 22.2879 67.9574 22.127 68.7538 21.8108C69.5502 21.4946 70.27 21.0297 70.8697 20.4443V21.9121H73.4955V9.00712H70.8596V10.4749H70.8697ZM62.1711 15.4596C62.1711 13.0006 64.1785 11.0467 66.5204 11.0467C68.8522 11.0467 70.8697 13.0006 70.8697 15.4596C70.8697 17.9186 68.8623 19.8629 66.5204 19.8629C64.1886 19.8629 62.1711 17.9186 62.1711 15.4596Z" fill="#101010"/>
</g>
</g>
</g>
</g>
<defs>
<clipPath id="clip0_1_393">
<rect width="73" height="28" fill="white" transform="translate(0.5)"/>
</clipPath>
<clipPath id="clip1_1_393">
<rect width="73" height="28" fill="white" transform="translate(0.5)"/>
</clipPath>
<clipPath id="clip2_1_393">
<rect width="73" height="28" fill="white" transform="translate(0.5)"/>
</clipPath>
</defs>
</svg>
