<svg width="213" height="28" viewBox="0 0 213 28" fill="none" xmlns="http://www.w3.org/2000/svg">
<g clip-path="url(#clip0_1_404)">
<g clip-path="url(#clip1_1_404)">
<g clip-path="url(#clip2_1_404)">
<path d="M16.3741 3.68595C16.3741 1.53719 14.1885 1 12.4631 1V1.32231C13.4983 1.32231 14.3036 1.64463 14.3036 2.39669C14.3036 2.82645 13.9585 3.47107 12.9232 3.47107C12.118 3.47107 10.3926 3.04132 9.12722 2.61157C7.63184 2.07438 6.25148 1.64463 5.10119 1.64463C2.80059 1.64463 1.19018 3.2562 1.19018 5.08264C1.19018 6.69421 2.4555 7.2314 2.91562 7.44628L3.03065 7.2314C2.80059 7.01653 2.4555 6.80165 2.4555 6.15702C2.4555 5.72727 2.91562 4.97521 4.06592 4.97521C5.10119 4.97521 6.48154 5.40496 8.32202 5.94215C9.93243 6.3719 11.6579 6.69421 12.5781 6.80165V10.1322L10.8527 11.5289V11.6364L12.5781 13.0331V17.6529C11.6579 18.1901 10.6226 18.2975 9.70237 18.2975C7.97693 18.2975 6.48154 17.8678 5.21622 16.5785L9.93243 14.4298V7.01653L4.18095 9.38016C4.64107 7.98347 5.90639 7.01653 7.17172 6.3719L7.05669 6.04959C3.6058 6.90909 0.5 9.91736 0.5 13.5702C0.5 17.8678 4.29598 21.0909 8.55208 21.0909C13.1533 21.0909 16.144 17.6529 16.144 14.1074H15.914C15.2238 15.5041 14.1885 16.7934 12.9232 17.438V13.0331L14.7637 11.6364V11.5289L12.9232 10.1322V6.80165C14.6486 6.80165 16.3741 5.72727 16.3741 3.68595ZM6.36651 15.5041L4.98616 16.1488C4.18095 15.1818 3.72083 13.8926 3.72083 12.0661C3.72083 11.314 3.72083 10.4545 3.95089 9.80992L6.36651 8.84297V15.5041ZM18.5597 17.9752L17.0643 19.0496L17.2943 19.2645L17.9845 18.7273L20.5152 20.876L23.966 18.7273L23.851 18.5124L22.9308 19.0496L21.7805 17.9752V10.6694L22.7007 10.0248L24.6562 11.5289V18.0826C24.6562 22.1653 23.736 22.8099 21.7805 23.4545V23.7769C25.0013 23.8843 27.9921 22.9174 27.9921 17.6529V10.562L29.0274 9.80992L28.7973 9.59504L27.8771 10.2397L25.0013 7.98347L21.7805 10.2397V1.42975H21.5504L17.5244 4.00826V4.22314C17.9845 4.43802 18.6747 4.65289 18.6747 5.83471L18.5597 17.9752ZM39.6101 16.7934L36.7343 18.8347L33.8586 16.686V15.3967L39.265 11.9587V11.8512L36.5043 7.98347L30.5227 10.9917V18.0826L29.3724 18.9421L29.6025 19.157L30.6378 18.405L34.5488 21.0909L39.7251 17.2231L39.6101 16.7934ZM33.8586 14.9669V9.70248L34.0887 9.59504L36.6193 13.3554L33.8586 14.9669ZM61.5807 2.71901C61.5807 2.39669 61.4657 2.07438 61.3507 1.75207H61.1206C60.7755 2.61157 60.3154 3.04132 59.1651 3.04132C58.1299 3.04132 57.4397 2.50413 56.9796 2.07438L53.6437 5.61983L53.8738 5.83471L55.0241 4.86777C55.7142 5.40496 56.2894 5.83471 57.8998 5.94215V14.8595L51.113 4.00826C50.5379 3.14876 49.7327 1.96694 48.1223 1.96694C46.2818 1.96694 44.6714 3.47107 44.9014 5.83471H45.2465C45.3616 5.19008 45.7067 4.43802 46.5119 4.43802C47.087 4.43802 47.6622 4.97521 48.0072 5.5124V9.05785C45.9367 9.05785 44.5564 9.91736 44.5564 11.5289C44.5564 12.3884 45.0165 13.6777 46.3968 14V13.7851C46.1668 13.5702 46.0517 13.3554 46.0517 13.0331C46.0517 12.4959 46.5119 12.0661 47.3171 12.0661H47.8922V16.5785C45.4766 16.5785 43.5211 17.8678 43.5211 20.0165C43.5211 22.0579 45.3616 23.0248 47.4321 22.9174V22.7025C46.1668 22.595 45.5916 22.0579 45.5916 21.3058C45.5916 20.3388 46.2818 19.9091 47.202 19.9091C48.1223 19.9091 48.9275 20.4463 49.5026 21.0909L52.8385 17.6529L52.6084 17.438L51.8032 18.2975C50.5379 17.2231 49.8477 16.9008 48.3523 16.686V5.94215L57.5547 20.9835H58.2449V5.94215C59.9703 5.83471 61.5807 4.54545 61.5807 2.71901ZM69.9779 16.7934L67.1022 18.8347L64.2264 16.686V15.3967L69.6328 11.9587V11.8512L66.8721 7.98347L60.8906 10.9917V18.0826L59.7403 18.9421L59.9703 19.157L61.0056 18.405L64.9166 21.0909L70.0929 17.2231L69.9779 16.7934ZM64.2264 14.9669V9.70248L64.4565 9.59504L66.9871 13.3554L64.2264 14.9669ZM88.7277 9.16529L87.9225 9.70248L85.737 7.98347L83.2063 10.1322L84.2416 11.0992V19.157L81.4809 17.5455V10.8843L82.4011 10.3471L79.7554 7.98347L77.2248 10.1322L78.26 11.0992V18.8347L77.915 19.0496L75.4993 17.438V10.9917C75.4993 9.4876 74.6941 9.05785 73.7739 8.52066C72.9687 7.98347 72.5086 7.66116 72.5086 6.90909C72.5086 6.26446 73.1987 5.94215 73.5438 5.72727V5.5124C72.6236 5.5124 70.208 6.3719 70.208 8.41322C70.208 9.4876 70.7831 9.91736 71.3583 10.4545C71.9334 10.9917 72.5086 11.4215 72.5086 12.3884V18.6198L71.2432 19.4793L71.4733 19.6942L72.6236 18.8347L75.2693 20.9835L78.145 19.157L81.3658 20.9835L87.4624 17.6529V10.4545L88.9578 9.38016L88.7277 9.16529ZM110.123 3.2562L108.973 4.22314L106.442 2.07438L102.646 4.65289V2.28926H102.301L102.416 19.6942C102.071 19.6942 101.036 19.4793 100.231 19.2645L100.001 4.76033C100.001 3.68595 99.1954 2.18182 97.1249 2.18182C95.0544 2.18182 93.674 3.68595 93.674 5.19008H94.0191C94.1341 4.54545 94.4792 4.00826 95.1694 4.00826C95.8596 4.00826 96.4347 4.43802 96.4347 5.83471V10.0248C94.3642 10.1322 93.0989 11.2066 93.0989 12.6033C93.0989 13.4628 93.559 14.7521 94.9393 14.7521V14.5372C94.4792 14.3223 94.3642 14 94.3642 13.7851C94.3642 13.1405 94.9393 12.9256 95.8596 12.9256H96.3197V19.5868C94.5943 20.124 93.9041 21.3058 93.9041 22.595C93.9041 24.4215 95.3995 25.7107 97.7 25.7107C99.3105 25.7107 100.691 25.4959 102.071 25.1736C103.221 24.9587 104.717 24.6364 105.407 24.6364C106.327 24.6364 106.672 25.0661 106.672 25.6033C106.672 26.3554 106.327 26.6777 105.867 26.7851V27C107.708 26.6777 108.858 25.6033 108.858 23.9917C108.858 22.3802 107.132 21.4132 105.292 21.4132C104.372 21.4132 102.416 21.7355 101.036 21.9504C99.4255 22.2727 97.8151 22.4876 97.355 22.4876C96.5498 22.4876 95.6295 22.1653 95.6295 21.0909C95.6295 20.2314 96.4347 19.4793 98.3902 19.4793C99.4255 19.4793 100.691 19.5868 101.956 19.9091C103.336 20.2314 104.602 20.5537 105.752 20.5537C107.478 20.5537 108.973 20.0165 108.973 17.7603V4.54545L110.353 3.47107L110.123 3.2562ZM105.407 9.80992C105.062 10.1322 104.602 10.4545 104.027 10.4545C103.452 10.4545 102.876 10.1322 102.646 9.80992V5.08264L103.797 4.33058L105.407 5.72727V9.80992ZM105.407 13.0331C105.177 12.8182 104.602 12.4959 104.027 12.4959C103.452 12.4959 102.876 12.8182 102.646 13.0331V10.2397C102.876 10.4545 103.452 10.7769 104.027 10.7769C104.602 10.7769 105.177 10.4545 105.407 10.2397V13.0331ZM105.407 18.0826C105.407 18.9421 104.832 19.8017 103.567 19.8017H102.646V13.4628C102.876 13.2479 103.452 12.9256 104.027 12.9256C104.602 12.9256 105.062 13.2479 105.407 13.4628V18.0826ZM121.166 10.4545L117.485 7.98347L111.849 10.9917V17.9752L110.698 18.8347L110.813 19.0496L111.734 18.405L115.415 20.9835L121.166 17.7603V10.4545ZM114.954 17.2231V9.4876L117.83 11.4215V19.0496L114.954 17.2231ZM132.094 8.19835H131.864C131.519 8.41322 131.174 8.6281 130.829 8.6281C130.368 8.6281 129.793 8.41322 129.563 8.09091H129.333L127.378 10.1322L125.422 8.09091L121.971 10.2397L122.086 10.4545L123.007 9.91736L124.157 11.0992V17.8678L122.661 18.9421L122.892 19.157L123.582 18.6198L126.342 20.7686L129.908 18.5124L129.793 18.2975L128.758 18.8347L127.378 17.7603V10.2397C127.953 10.7769 128.643 11.314 129.448 11.314C131.059 11.4215 131.979 9.91736 132.094 8.19835ZM145.897 18.5124L141.986 20.9835L136.695 13.4628L140.491 7.98347H140.721C141.181 8.41322 141.871 8.84297 142.677 8.84297C143.482 8.84297 144.057 8.41322 144.402 7.98347H144.632C144.517 10.1322 142.907 11.4215 141.756 11.4215C140.606 11.4215 140.031 10.8843 139.341 10.562L138.996 11.0992L144.747 19.0496L145.897 18.405V18.5124ZM133.244 17.9752L131.749 19.0496L131.979 19.2645L132.669 18.7273L135.2 20.876L138.651 18.7273L138.421 18.5124L137.5 19.0496L136.35 17.9752V1.42975H136.235L132.094 4.00826V4.22314C132.554 4.43802 133.244 4.54545 133.244 5.83471V17.9752ZM164.992 3.68595C164.992 1.53719 162.807 1 161.081 1V1.32231C162.117 1.32231 162.922 1.64463 162.922 2.39669C162.922 2.82645 162.577 3.47107 161.542 3.47107C160.736 3.47107 159.011 3.04132 157.746 2.61157C156.25 2.18182 154.87 1.75207 153.719 1.75207C151.419 1.75207 149.808 3.36364 149.808 5.19008C149.808 6.80165 151.074 7.33884 151.534 7.55372L151.649 7.33884C151.304 7.12397 150.959 6.90909 150.959 6.26446C150.959 5.83471 151.419 5.08264 152.569 5.08264C153.604 5.08264 154.985 5.5124 156.825 6.04959C158.436 6.47934 160.161 6.80165 161.081 6.90909V10.2397L159.356 11.6364V11.7438L161.081 13.1405V17.7603C160.161 18.2975 159.126 18.405 158.206 18.405C156.48 18.405 154.985 17.9752 153.719 16.686L158.436 14.5372V7.01653L152.684 9.38016C153.259 7.98347 154.525 7.01653 155.675 6.26446L155.56 6.04959C152.109 6.90909 149.003 9.80992 149.003 13.4628C149.003 17.7603 152.799 20.9835 157.055 20.9835C161.657 20.9835 164.647 17.5455 164.647 14H164.417C163.727 15.3967 162.692 16.686 161.426 17.3306V12.9256L163.267 11.5289V11.4215L161.542 10.0248V6.80165C163.267 6.80165 164.992 5.72727 164.992 3.68595ZM154.985 15.5041L153.604 16.1488C152.799 15.1818 152.339 13.8926 152.339 12.0661C152.339 11.314 152.454 10.4545 152.684 9.80992L155.1 8.84297L154.985 15.5041ZM169.018 2.61157H168.903L166.603 4.43802V4.54545L168.558 6.58678H168.788L171.089 4.76033V4.65289L169.018 2.61157ZM172.469 18.5124L171.549 19.0496L170.399 17.9752V10.562L171.549 9.80992L171.319 9.59504L170.514 10.2397L168.443 7.98347L165.107 10.1322L165.337 10.4545L166.143 9.91736L167.178 11.0992V18.0826L165.683 19.157L165.798 19.3719L166.603 18.8347L169.133 20.9835L172.584 18.8347L172.469 18.5124ZM191.679 18.405L190.874 18.9421L189.609 17.8678V10.562L190.759 9.70248L190.529 9.4876L189.609 10.2397L186.963 7.98347L183.512 10.2397L180.866 7.98347L177.646 10.2397L175.575 7.98347L172.239 10.1322L172.354 10.4545L173.16 9.91736L174.31 11.0992V18.0826L173.39 18.9421L176.035 20.9835L178.566 18.8347L177.531 17.8678V10.562L178.566 9.91736L180.291 11.4215V17.8678L179.371 18.7273L182.017 20.7686L184.547 18.6198L183.512 17.6529V10.562L184.432 10.0248L186.273 11.5289V17.9752L185.468 18.7273L188.113 20.9835L191.679 18.7273V18.405ZM201.687 16.7934L198.811 18.8347L195.935 16.686V15.3967L201.342 11.9587V11.8512L198.581 7.98347L192.6 10.9917V18.2975L196.626 20.9835L201.802 17.1157L201.687 16.7934ZM195.935 14.9669V9.70248L196.165 9.59504L198.696 13.3554L195.935 14.9669ZM212.155 14L209.969 12.3884C211.464 11.2066 212.04 9.59504 212.04 8.52066V7.87603H211.809C211.579 8.41322 211.119 8.95041 210.199 8.95041C209.279 8.95041 208.704 8.52066 208.129 7.87603L202.952 10.562V14.4298L204.908 15.8264C202.952 17.438 202.607 18.5124 202.607 19.3719C202.607 20.4463 203.182 21.1983 204.102 21.5207L204.218 21.3058C203.987 21.0909 203.757 20.9835 203.757 20.4463C203.757 20.124 204.217 19.5868 205.138 19.5868C206.288 19.5868 206.978 20.3388 207.323 20.6612L212.27 17.8678V14H212.155ZM210.889 10.7769C210.084 12.0661 208.359 13.3554 207.323 14L206.058 13.0331V9.27273C206.518 10.3471 207.783 11.2066 209.049 11.2066C209.854 11.2066 210.314 11.0992 210.889 10.7769ZM208.934 19.3719C208.359 18.1901 206.978 17.3306 205.598 17.3306C205.253 17.3306 204.333 17.3306 203.412 17.8678C203.987 17.0083 205.483 15.5041 207.438 14.4298L208.819 15.5041L208.934 19.3719Z" fill="#101010"/>
</g>
</g>
</g>
<defs>
<clipPath id="clip0_1_404">
<rect width="212" height="28" fill="white" transform="translate(0.5)"/>
</clipPath>
<clipPath id="clip1_1_404">
<rect width="212" height="28" fill="white" transform="translate(0.5)"/>
</clipPath>
<clipPath id="clip2_1_404">
<rect width="212" height="28" fill="white" transform="translate(0.5)"/>
</clipPath>
</defs>
</svg>
