<svg width="104" height="28" viewBox="0 0 104 28" fill="none" xmlns="http://www.w3.org/2000/svg">
<g clip-path="url(#clip0_1_408)">
<g clip-path="url(#clip1_1_408)">
<g clip-path="url(#clip2_1_408)">
<path fill-rule="evenodd" clip-rule="evenodd" d="M4.7915 1H21.8914C23.0298 0.999666 24.1218 1.45724 24.9268 2.27203C25.7318 3.08681 26.1842 4.19203 26.1842 5.34448V22.6542C26.1842 25.0544 24.2622 27 21.8914 27H4.7915C2.42116 26.9993 0.5 25.0539 0.5 22.6542V5.34448C0.5 2.94508 2.42136 1 4.7915 1ZM20.1631 22.2733C20.9112 22.2733 21.5176 21.6594 21.5176 20.9021L21.5139 7.09916C21.5139 6.34187 20.9074 5.72796 20.1593 5.72796H6.52603C6.16659 5.72796 5.82188 5.8726 5.56783 6.13002C5.31377 6.38745 5.17122 6.73655 5.17155 7.10043V20.9021C5.17155 21.6594 5.77797 22.2733 6.52603 22.2733H20.1631Z" fill="#101010"/>
<path d="M10.6171 17.525C10.19 17.5215 9.8457 17.1702 9.84571 16.7379V11.2278C9.84472 11.0184 9.92619 10.8172 10.0721 10.6687C10.2181 10.5203 10.4164 10.4368 10.6233 10.4368H16.0737C16.2805 10.4372 16.4786 10.5207 16.6245 10.6691C16.7703 10.8175 16.8519 11.0185 16.8512 11.2278V16.7366C16.8519 16.9459 16.7703 17.1469 16.6245 17.2952C16.4786 17.4436 16.2805 17.5272 16.0737 17.5276L10.6171 17.525Z" fill="#101010"/>
<path d="M39.2531 12.8415C38.458 12.622 37.7054 12.4151 37.121 12.1515C36.0394 11.6621 35.536 10.9834 35.536 10.0171C35.536 8.19049 37.2805 7.36801 39.0176 7.36801C40.6685 7.36801 42.1103 8.05929 43.0785 9.31319L43.1445 9.39897L44.5401 8.29393L44.4729 8.20814C43.1857 6.55058 41.2792 5.64233 39.1022 5.64233C37.6531 5.64233 36.3247 6.03843 35.3641 6.75873C34.2825 7.55975 33.7117 8.72156 33.7117 10.1079C33.7117 13.331 36.7097 14.1168 39.1197 14.7488C41.5583 15.3998 43.0524 15.8943 43.0524 17.7763C43.0524 19.6294 41.572 20.8266 39.2817 20.8266C38.149 20.8266 36.0519 20.5226 34.7336 18.4841L34.6725 18.3881L33.2046 19.4642L33.2619 19.5513C34.508 21.4611 36.6587 22.5574 39.1696 22.5574C42.58 22.5574 44.8728 20.6083 44.8728 17.7095C44.8728 14.3918 41.7552 13.5328 39.2531 12.8415Z" fill="#101010"/>
<path fill-rule="evenodd" clip-rule="evenodd" d="M55.9979 12.1717V10.4271H57.6389V26.9977H55.9979V20.5238C55.0608 21.8244 53.6552 22.5358 52.0029 22.5358C48.8828 22.5358 46.702 20.0066 46.702 16.3547C46.702 12.7027 48.8877 10.1533 52.0029 10.1533C53.644 10.1533 55.0496 10.8686 55.9979 12.1717ZM48.4317 16.3345C48.4317 19.7152 50.3444 20.9199 52.1349 20.9199L52.1387 20.9211C54.4826 20.9211 55.9979 19.1046 55.9979 16.3345C55.9979 13.5643 54.4801 11.773 52.1349 11.773C49.4048 11.773 48.4317 14.1294 48.4317 16.3345Z" fill="#101010"/>
<path d="M68.4886 10.427V16.9676C68.4886 19.2573 66.9396 20.9199 64.8063 20.9199C63.0344 20.9199 62.1722 19.8552 62.1722 17.6666V10.427H60.5311V18.0059C60.5311 20.8441 62.055 22.5383 64.6069 22.5383C66.1969 22.5383 67.5627 21.8559 68.4897 20.6082V22.2683H70.1309V10.427H68.4886Z" fill="#101010"/>
<path fill-rule="evenodd" clip-rule="evenodd" d="M73.2212 11.6708C74.4311 10.7083 76.0734 10.157 77.7245 10.157C80.3326 10.157 81.8889 11.4702 81.884 13.6727V22.2709H80.2417V20.9577C79.4129 22.0084 78.2142 22.5408 76.6716 22.5408C74.1582 22.5408 72.5956 21.1494 72.5956 18.9116C72.5956 16.0014 75.3046 15.5447 76.4586 15.3504C76.6466 15.319 76.841 15.2887 77.0353 15.2583L77.0425 15.2573C78.6191 15.0116 80.2466 14.7581 80.2466 13.4041C80.2466 11.8714 78.2815 11.7528 77.6797 11.7528C76.6167 11.7528 75.1152 12.0719 74.0947 12.9675L74.0013 13.0495L73.1439 11.7326L73.2212 11.6708ZM74.309 18.8182C74.309 20.7155 76.0734 20.921 76.8324 20.921H76.8335C78.4834 20.921 80.2491 20.0305 80.2454 17.5278V15.8146C79.4449 16.3265 78.3056 16.5264 77.2894 16.7048L77.2722 16.7078L76.7626 16.7999C75.1352 17.1052 74.309 17.4987 74.309 18.8182Z" fill="#101010"/>
<path d="M91.3914 10.6503C91.0014 10.369 90.3871 10.2012 89.7466 10.2012C88.4304 10.2188 87.1989 10.8611 86.4208 11.9358V10.422H84.7797V22.2621H86.4208V15.9296C86.4208 13.1216 87.9797 11.8638 89.5235 11.8638C89.9754 11.8577 90.4227 11.9538 90.8332 12.1452L90.9441 12.2044L91.4637 10.6983L91.3914 10.6503Z" fill="#101010"/>
<path fill-rule="evenodd" clip-rule="evenodd" d="M91.8724 16.3798C91.8724 12.7165 94.129 10.157 97.3551 10.157C100.463 10.157 102.635 12.4289 102.629 15.6872C102.628 15.9705 102.612 16.2534 102.582 16.5349L102.572 16.6321H93.6006C93.6417 19.2395 95.1919 20.921 97.5706 20.921C98.9339 20.921 100.115 20.3598 100.896 19.3392L100.967 19.2459L102.156 20.3181L102.09 20.3988C101.3 21.3739 99.8597 22.537 97.4797 22.537C94.1277 22.537 91.8724 20.0633 91.8724 16.3798ZM97.3102 11.7515C95.3053 11.7515 93.8835 13.0873 93.6617 15.1676H100.894C100.752 13.4948 99.7426 11.7515 97.3102 11.7515Z" fill="#101010"/>
</g>
</g>
</g>
<defs>
<clipPath id="clip0_1_408">
<rect width="103" height="28" fill="white" transform="translate(0.5)"/>
</clipPath>
<clipPath id="clip1_1_408">
<rect width="103" height="28" fill="white" transform="translate(0.5)"/>
</clipPath>
<clipPath id="clip2_1_408">
<rect width="103" height="28" fill="white" transform="translate(0.5)"/>
</clipPath>
</defs>
</svg>
