<svg width="174" height="28" viewBox="0 0 174 28" fill="none" xmlns="http://www.w3.org/2000/svg">
<g clip-path="url(#clip0_1_419)">
<g clip-path="url(#clip1_1_419)">
<g clip-path="url(#clip2_1_419)">
<path d="M50.4642 9.68455V18.4959H52.6575C53.2173 18.4875 53.7697 18.3669 54.2821 18.1409C54.7945 17.915 55.2564 17.5885 55.6406 17.1806C56.4291 16.3445 56.8605 15.233 56.843 14.0829C56.8597 13.5117 56.7636 12.9428 56.5601 12.4089C56.3566 11.875 56.0498 11.3866 55.6574 10.9718C55.2716 10.5634 54.8064 10.2384 54.2905 10.0168C53.7746 9.79521 53.2189 9.68176 52.6575 9.68343H50.4653L50.4642 9.68455ZM52.6575 6.92185C56.7457 6.92185 59.8383 10.0946 59.8383 14.0829C59.8383 18.0713 56.7457 21.2619 52.6575 21.2619H47.82C47.7739 21.2614 47.7283 21.2517 47.6859 21.2335C47.6436 21.2152 47.6052 21.1888 47.573 21.1557C47.5408 21.1227 47.5154 21.0835 47.4983 21.0406C47.4812 20.9977 47.4727 20.9519 47.4733 20.9057V7.29267C47.4733 7.09549 47.6288 6.93529 47.82 6.93529L52.6575 6.92185ZM70.3757 18.8028C72.2324 18.8084 73.9091 17.6646 74.6238 15.9046C74.9739 15.0446 75.0675 14.1015 74.8932 13.1893C74.7188 12.2772 74.2841 11.4353 73.6417 10.7657C73.0106 10.107 72.1948 9.65567 71.3021 9.47124C70.4094 9.28681 69.4819 9.37799 68.642 9.73273C66.9262 10.4587 65.8055 12.1761 65.8022 14.0829C65.8022 16.6821 67.8468 18.7905 70.3768 18.8028H70.3757ZM70.3768 6.59695C74.6797 6.59695 77.9692 9.99376 77.9692 14.0829C77.9692 18.1721 74.6797 21.5689 70.3757 21.5689C66.0728 21.5689 62.8113 18.1889 62.8113 14.0829C62.8113 9.97696 66.1008 6.59695 70.3757 6.59695H70.3768ZM88.4216 18.8028C90.9528 18.7961 93.0008 16.6854 92.9985 14.0863C92.9952 11.4849 90.9427 9.37871 88.4127 9.37759C85.8804 9.37759 83.8268 11.4827 83.8234 14.0829C83.8234 15.3354 84.3078 16.5364 85.1701 17.4215C85.5922 17.8576 86.0973 18.2046 86.6556 18.4419C87.2139 18.6791 87.814 18.8019 88.4205 18.8028H88.4216ZM88.4205 6.59695C92.7099 6.59695 95.9995 9.97696 95.9995 14.0829C95.9995 18.1889 92.6965 21.5689 88.4205 21.5689C84.1456 21.5689 80.8281 18.1889 80.8281 14.0829C80.8281 9.97696 84.1176 6.59695 88.4205 6.59695ZM106.032 9.68455H102.94V13.4768H106.032C106.277 13.4877 106.521 13.4483 106.749 13.361C106.978 13.2737 107.186 13.1404 107.361 12.9693C107.719 12.622 107.923 12.1403 107.927 11.6339C107.936 11.377 107.893 11.1209 107.801 10.881C107.709 10.6412 107.569 10.4224 107.39 10.238C107.215 10.0565 107.003 9.91375 106.769 9.81901C106.536 9.72428 106.285 9.67962 106.032 9.68791V9.68455ZM99.9478 7.29267C99.9478 7.09549 100.104 6.93529 100.296 6.93529H106.119C108.895 6.93529 110.903 9.02469 110.903 11.6485C110.925 13.4231 109.957 15.0531 108.413 15.8474L111.098 20.7242C111.135 20.7802 111.156 20.8455 111.159 20.9127C111.161 20.98 111.145 21.0466 111.112 21.1051C111.079 21.1627 111.031 21.2098 110.973 21.2408C110.914 21.2718 110.848 21.2853 110.783 21.2799H108.426C108.361 21.2808 108.296 21.2632 108.241 21.2291C108.185 21.195 108.14 21.1458 108.111 21.0872L105.522 16.2608H102.929V20.8945C102.929 20.9408 102.921 20.9867 102.904 21.0298C102.887 21.0728 102.861 21.1121 102.829 21.1453C102.797 21.1785 102.759 21.205 102.716 21.2233C102.674 21.2416 102.628 21.2513 102.582 21.2519H100.311C100.265 21.2513 100.219 21.2416 100.177 21.2233C100.135 21.205 100.096 21.1785 100.064 21.1453C100.032 21.1121 100.006 21.0728 99.9892 21.0298C99.9722 20.9867 99.9638 20.9408 99.9645 20.8945L99.9489 7.29379L99.9478 7.29267ZM118.702 9.75177V18.5642H120.894C121.454 18.5566 122.006 18.4367 122.519 18.2116C123.031 17.9864 123.493 17.6606 123.878 17.2534C124.667 16.4183 125.099 15.3076 125.083 14.158C125.101 13.5861 125.005 13.0162 124.802 12.4813C124.6 11.9464 124.293 11.457 123.9 11.0413C123.514 10.6321 123.048 10.3067 122.531 10.0851C122.014 9.86353 121.457 9.75046 120.895 9.75289L118.702 9.75177ZM120.894 6.9857C124.982 6.9857 128.075 10.1618 128.075 14.158C128.075 18.1542 124.982 21.3303 120.894 21.3303H116.071C116.025 21.3297 115.979 21.32 115.937 21.3017C115.894 21.2834 115.856 21.2569 115.824 21.2237C115.791 21.1905 115.766 21.1512 115.749 21.1082C115.732 21.0652 115.723 21.0192 115.724 20.9729V7.36101C115.724 7.16271 115.88 7.00251 116.071 7.00251L120.894 6.9857ZM137.197 10.4901L135.5 15.2021H138.891L137.197 10.4901ZM134.505 17.8651L133.394 21.002C133.372 21.0758 133.326 21.1401 133.263 21.1847C133.2 21.2294 133.124 21.2518 133.048 21.2485H130.638C130.577 21.2542 130.515 21.2433 130.459 21.2169C130.404 21.1905 130.356 21.1495 130.322 21.0984C130.287 21.0466 130.265 20.9866 130.26 20.9242C130.255 20.8618 130.266 20.7991 130.292 20.7421L135.497 7.14255C135.521 7.07083 135.568 7.00903 135.631 6.96656C135.694 6.92408 135.768 6.90327 135.844 6.90728H138.539C138.615 6.90302 138.69 6.92372 138.753 6.96621C138.816 7.0087 138.863 7.07064 138.887 7.14255L144.093 20.7421C144.119 20.7992 144.129 20.8619 144.124 20.9244C144.118 20.9868 144.097 21.0467 144.061 21.0984C144.027 21.1493 143.979 21.1901 143.924 21.2163C143.868 21.2425 143.806 21.2532 143.745 21.2474H141.337C141.26 21.2507 141.184 21.2282 141.121 21.1836C141.058 21.139 141.012 21.0747 140.99 21.0009L139.879 17.864H134.505V17.8651ZM146.886 10.7959C146.886 8.54407 148.78 6.59695 151.772 6.59695C153.384 6.56091 154.944 7.16461 156.112 8.27631C156.148 8.31003 156.176 8.35067 156.196 8.39574C156.215 8.44082 156.225 8.48939 156.225 8.53847C156.225 8.58755 156.215 8.63611 156.196 8.68119C156.176 8.72627 156.148 8.76691 156.112 8.80062L154.778 10.1618C154.746 10.1949 154.708 10.2212 154.665 10.2391C154.623 10.2571 154.578 10.2663 154.532 10.2663C154.486 10.2663 154.44 10.2571 154.398 10.2391C154.356 10.2212 154.318 10.1949 154.286 10.1618C153.657 9.57176 152.832 9.23745 151.97 9.2241C150.774 9.2241 149.889 9.93775 149.889 10.7612C149.889 13.4231 156.961 11.8871 156.961 17.0092C156.958 19.605 155.048 21.5689 151.673 21.5689C150.735 21.5785 149.806 21.3992 148.939 21.0416C148.072 20.684 147.286 20.1554 146.627 19.4874C146.592 19.4536 146.563 19.413 146.544 19.3679C146.525 19.3228 146.515 19.2743 146.515 19.2252C146.515 19.1761 146.525 19.1276 146.544 19.0825C146.563 19.0374 146.592 18.9968 146.627 18.963L147.918 17.6366C147.95 17.6019 147.989 17.5742 148.032 17.5553C148.076 17.5364 148.122 17.5266 148.17 17.5266C148.217 17.5266 148.264 17.5364 148.307 17.5553C148.35 17.5742 148.389 17.6019 148.421 17.6366C149.234 18.4431 150.328 18.9012 151.471 18.9137C152.967 18.9137 153.952 18.0937 153.952 17.0663C153.952 14.4033 146.883 15.9404 146.883 10.8172L146.886 10.7959ZM169.786 7.27475V12.6568H163.8V7.27475C163.8 7.22855 163.792 7.18269 163.775 7.13978C163.757 7.09687 163.732 7.05776 163.7 7.02468C163.668 6.9916 163.629 6.96519 163.587 6.94697C163.545 6.92875 163.499 6.91907 163.453 6.91848H161.182C161.136 6.91907 161.091 6.92875 161.048 6.94697C161.006 6.96519 160.967 6.9916 160.935 7.02468C160.903 7.05776 160.878 7.09687 160.861 7.13978C160.843 7.18269 160.835 7.22855 160.836 7.27475V20.8721C160.836 21.0692 160.992 21.2294 161.182 21.2294H163.453C163.643 21.2294 163.8 21.0692 163.8 20.8721V15.4049H169.781V20.8721C169.781 21.0692 169.938 21.2294 170.128 21.2294H172.399C172.59 21.2294 172.745 21.0692 172.745 20.8721V7.27475C172.746 7.22855 172.737 7.18269 172.72 7.13978C172.703 7.09687 172.678 7.05776 172.646 7.02468C172.614 6.9916 172.575 6.96519 172.533 6.94697C172.49 6.92875 172.445 6.91907 172.399 6.91848H170.128C170.036 6.92083 169.948 6.95955 169.884 7.02623C169.82 7.09292 169.785 7.18221 169.786 7.27475ZM34.728 8.7334C33.1531 5.80937 30.0716 3.98885 26.7206 4.00005H1.36643C1.19521 4.00075 1.02798 4.05189 0.885571 4.14712C0.743165 4.24234 0.631882 4.37744 0.565589 4.53556C0.500264 4.69268 0.483251 4.86575 0.516728 5.0326C0.550204 5.19946 0.632647 5.35251 0.753497 5.47215L6.27665 10.9617C6.76432 11.4479 7.42871 11.7202 8.11994 11.7202H25.9936C27.2676 11.7067 28.3089 12.7173 28.3223 13.9754C28.3357 15.2335 27.3145 16.2642 26.0406 16.2765H13.718C13.5467 16.2766 13.3792 16.3272 13.2363 16.422C13.0935 16.5169 12.9817 16.6517 12.915 16.8098C12.849 16.9671 12.8315 17.1405 12.8648 17.3078C12.8981 17.4752 12.9806 17.6287 13.1017 17.7486L18.6283 23.2427C19.119 23.7286 19.7815 24.0008 20.4715 24H26.045C33.2963 24 38.7792 16.337 34.728 8.73004" fill="#101010"/>
</g>
</g>
</g>
<defs>
<clipPath id="clip0_1_419">
<rect width="173" height="28" fill="white" transform="translate(0.5)"/>
</clipPath>
<clipPath id="clip1_1_419">
<rect width="173" height="28" fill="white" transform="translate(0.5)"/>
</clipPath>
<clipPath id="clip2_1_419">
<rect width="173" height="28" fill="white" transform="translate(0.5)"/>
</clipPath>
</defs>
</svg>
