<svg width="104" height="28" viewBox="0 0 104 28" fill="none" xmlns="http://www.w3.org/2000/svg">
<g clip-path="url(#clip0_1_423)">
<g clip-path="url(#clip1_1_423)">
<g clip-path="url(#clip2_1_423)">
<path fill-rule="evenodd" clip-rule="evenodd" d="M37.0489 25.2707C34.1547 25.2707 32.585 23.7984 32.585 21.0502V13.0019H31.5794C31.0888 13.0019 30.6473 12.8056 30.304 12.462C29.9606 12.1185 29.7889 11.6523 29.7889 11.1861C29.8134 10.2291 30.5983 9.46841 31.5794 9.46841H32.585V7.06372C32.6586 5.98406 33.5661 5.17432 34.6698 5.17432C35.749 5.17432 36.6565 6.0086 36.7546 7.06372V9.46841H38.3734C39.3545 9.49294 40.1148 10.2782 40.1148 11.2352C40.1148 12.1921 39.3545 12.9773 38.3734 13.0019H36.7546V19.9706C36.7546 21.1974 37.5395 21.6637 38.1772 21.6637H38.5451C39.7224 21.6637 40.3601 22.4243 40.3601 23.4304C40.3601 24.4364 39.7469 25.2707 37.0489 25.2707Z" fill="#101010"/>
<path d="M50.0729 25.2707C44.8976 25.2707 41.7827 21.5655 41.7827 17.1487C41.7827 12.781 44.9221 9.05127 50.0729 9.05127C55.2726 9.05127 58.3876 12.7565 58.3876 17.1487C58.3876 21.5655 55.2726 25.2707 50.0729 25.2707ZM50.0729 12.6829C47.4975 12.6829 46.0749 14.7686 46.0749 17.1487C46.0749 19.578 47.4975 21.6637 50.0729 21.6637C52.6482 21.6637 54.0953 19.578 54.0953 17.1487C54.0953 14.7686 52.6237 12.6829 50.0729 12.6829Z" fill="#101010"/>
<path d="M72.9812 25.0989H72.6624C72.3435 25.0989 70.8719 24.8536 70.8719 23.3077C69.7927 24.5591 67.9532 25.2952 65.8929 25.2952C63.3911 25.2952 60.4233 23.6267 60.4233 20.1914C60.4233 16.5844 63.3911 15.2103 65.8929 15.2103C67.9777 15.2103 69.8172 15.8728 70.8719 17.0997V14.9894C70.8719 13.419 69.4984 12.413 67.4381 12.413C66.1872 12.3884 64.9608 12.732 63.9307 13.3945C63.71 13.5417 63.4402 13.6153 63.1949 13.6153C62.3364 13.5908 61.6251 12.9037 61.6251 12.0449C61.6251 11.775 61.6987 11.4805 61.8459 11.2352C62.827 9.71378 66.3344 9.05127 68.1494 9.05127C71.7303 9.05127 75.017 10.45 75.017 14.8913V23.0868C74.9924 24.1665 74.1095 25.0744 72.9812 25.0989ZM70.8719 19.259C70.1851 18.3756 68.8852 17.9094 67.5607 17.9094C65.9419 17.9094 64.5929 18.7191 64.5929 20.2405C64.5929 21.6882 65.9174 22.5225 67.5607 22.5225C68.8852 22.5225 70.1851 22.0808 70.8719 21.1729V19.259Z" fill="#101010"/>
<path fill-rule="evenodd" clip-rule="evenodd" d="M84.7543 25.2708C82.7185 25.2708 79.4319 24.6083 78.4508 23.2096C78.2546 22.9643 78.1565 22.6698 78.1565 22.3508C78.181 21.4184 78.9413 20.6823 79.8734 20.6577C80.1677 20.6577 80.462 20.7313 80.7073 20.9031C81.9336 21.6147 83.577 22.1545 84.926 22.1545C86.7164 22.1545 87.5504 21.4429 87.5504 20.486C87.5504 17.934 78.23 19.9952 78.23 13.9344C78.23 11.3579 80.5356 9.07593 84.6562 9.07593C86.6919 9.07593 89.488 9.71391 90.371 10.9653C90.5427 11.1862 90.6408 11.4806 90.6408 11.7505C90.6163 12.6094 89.8804 13.2964 89.022 13.2964C88.7522 13.2964 88.4824 13.2228 88.2371 13.1001C87.1579 12.4867 85.9316 12.1677 84.6807 12.1677C83.1845 12.1677 82.2034 12.8302 82.2034 13.7136C82.2034 16.0201 91.4992 14.1062 91.4992 20.3387C91.5483 23.136 89.0956 25.2708 84.7543 25.2708Z" fill="#101010"/>
<path fill-rule="evenodd" clip-rule="evenodd" d="M99.863 25.2707C96.9688 25.2707 95.3991 23.7984 95.3991 21.0502V13.0019H94.3934C93.9029 13.0019 93.4614 12.8056 93.118 12.462C92.7747 12.1185 92.603 11.6523 92.603 11.1861C92.6275 10.2291 93.4124 9.46841 94.3934 9.46841H95.3991V7.06372C95.4726 5.98406 96.3802 5.17432 97.4839 5.17432C98.5631 5.17432 99.4706 6.0086 99.5687 7.06372V9.46841H101.187C102.169 9.49294 102.929 10.2782 102.929 11.2352C102.929 12.1921 102.169 12.9773 101.187 13.0019H99.5687V19.9706C99.5687 21.1974 100.354 21.6637 100.991 21.6637H101.359C102.536 21.6637 103.174 22.4243 103.174 23.4304C103.174 24.4364 102.561 25.2707 99.863 25.2707Z" fill="#101010"/>
<path d="M27.1645 18.9154C27.189 17.1978 27.1154 15.5047 26.9437 13.7871C26.8211 12.6338 26.4287 11.1615 25.1778 10.8671C25.3495 10.9162 25.4966 10.8916 25.6683 10.8426C27.1154 10.0819 26.9928 8.21703 26.5022 6.89199C25.84 5.12528 24.2457 3.87386 22.6515 3.06412C16.9612 0.0950611 9.38228 0.340438 3.8882 3.72663C2.4411 4.60999 0.797775 6.32763 1.53359 8.2661C1.72981 8.73232 2.02413 9.17399 2.39204 9.54206C2.56373 9.71382 2.93164 10.1064 2.93164 10.1064C2.19582 11.1125 1.65623 11.9958 1.31285 13.2227C0.258178 16.8543 0.429868 19.2099 0.724194 22.1299C0.895884 23.9457 1.50906 26.6448 3.59387 26.9393C5.31077 27.1846 7.15031 26.6203 8.84269 26.424C10.7313 26.2031 12.6199 25.8596 14.5085 25.9087C17.1819 25.9823 19.8309 26.6203 22.5288 26.6448C23.9514 26.6693 26.306 26.792 26.723 24.9272C27.1154 23.1605 27.14 21.3201 27.14 19.5043C27.1645 19.308 27.1645 19.1117 27.1645 18.9154ZM24.0986 21.9827C23.4363 23.4794 21.5478 23.3077 20.2233 23.2095C18.2611 23.0378 16.3235 22.5716 14.3368 22.4979C12.5953 22.4489 10.8539 22.7679 9.16154 23.1605C7.88613 23.4304 6.12017 24.1665 4.96739 23.185C3.69198 22.1053 3.47124 20.265 3.44671 18.7191C3.47124 17.3205 3.6184 15.8973 3.86367 14.5232C4.01083 13.6644 4.28063 12.8301 4.62401 12.0204C5.09003 10.8671 5.75226 10.1555 5.80132 10.2046C5.45794 9.86105 5.04098 9.66475 4.82023 9.17399C3.93725 7.35821 6.12017 5.81234 7.322 5.27251C11.4916 3.40764 17.3291 3.57941 21.278 5.9841C22.5043 6.72023 24.8835 9.29668 22.6515 10.5726C24.025 11.2106 24.3684 13.1736 24.5401 14.5723C24.7853 16.8052 24.7118 19.0627 24.3193 21.2711C24.2703 21.5164 24.1967 21.7618 24.0986 21.9827Z" fill="#101010"/>
</g>
</g>
</g>
<defs>
<clipPath id="clip0_1_423">
<rect width="103" height="28" fill="white" transform="translate(0.5)"/>
</clipPath>
<clipPath id="clip1_1_423">
<rect width="103" height="28" fill="white" transform="translate(0.5)"/>
</clipPath>
<clipPath id="clip2_1_423">
<rect width="103" height="28" fill="white" transform="translate(0.5)"/>
</clipPath>
</defs>
</svg>
