<svg width="54" height="28" viewBox="0 0 54 28" fill="none" xmlns="http://www.w3.org/2000/svg">
<g clip-path="url(#clip0_1_432)">
<g clip-path="url(#clip1_1_432)">
<g clip-path="url(#clip2_1_432)">
<path d="M5.78635 8.85005H0.5V4H16.9295V8.85005H11.642V23H5.78635V8.85005ZM17.8386 4H33.8135V8.85005H23.6947V11.1896H33.8135V15.7535H23.6947V18.1499H33.8135V23H17.8386V4ZM34.7793 4H44.3868C50.6975 4 52.9138 8.6789 52.9138 13.4719C52.9138 19.2916 49.8434 23 43.2496 23H34.7793V4ZM40.6354 18.1499H42.9083C46.5465 18.1499 47.0593 15.1835 47.0593 13.4149C47.0593 12.2162 46.6613 8.90716 42.4537 8.90716H40.5771L40.6354 18.1499Z" fill="#101010"/>
</g>
</g>
</g>
<defs>
<clipPath id="clip0_1_432">
<rect width="53" height="28" fill="white" transform="translate(0.5)"/>
</clipPath>
<clipPath id="clip1_1_432">
<rect width="53" height="28" fill="white" transform="translate(0.5)"/>
</clipPath>
<clipPath id="clip2_1_432">
<rect width="53" height="28" fill="white" transform="translate(0.5)"/>
</clipPath>
</defs>
</svg>
