<svg width="59" height="28" viewBox="0 0 59 28" fill="none" xmlns="http://www.w3.org/2000/svg">
<g clip-path="url(#clip0_1_436)">
<g clip-path="url(#clip1_1_436)">
<g clip-path="url(#clip2_1_436)">
<path d="M3.81263 18.2837C4.05595 18.9298 4.39281 19.4823 4.82329 19.941C5.25377 20.3999 5.76376 20.751 6.35326 20.9944C6.94282 21.2379 7.58382 21.3596 8.27631 21.3596C8.95011 21.3596 9.58172 21.2332 10.1713 20.9803C10.7608 20.7275 11.2755 20.3717 11.7153 19.9129C12.1551 19.4541 12.4967 18.9064 12.74 18.2697C12.9833 17.633 13.1049 16.9214 13.1049 16.1349V4H16.0526V23.6629H13.133V21.8371C12.478 22.5299 11.7059 23.0636 10.8169 23.4382C9.92791 23.8127 8.9688 24 7.93945 24C6.89133 24 5.91347 23.8174 5.00573 23.4522C4.09807 23.0871 3.31196 22.5675 2.64761 21.8933C1.98326 21.2191 1.45916 20.4093 1.07552 19.4635C0.691821 18.5178 0.5 17.4645 0.5 16.3034V4H3.44769V16.1349C3.44769 16.9214 3.56932 17.6376 3.81263 18.2837Z" fill="#101010"/>
<path d="M21.1337 4V11.1629C21.7888 10.5075 22.5468 9.98788 23.4077 9.60394C24.2686 9.22001 25.2044 9.02808 26.215 9.02808C27.2631 9.02808 28.2456 9.22468 29.1627 9.61793C30.0797 10.0112 30.8751 10.5449 31.5489 11.2191C32.2227 11.8933 32.7561 12.6891 33.1491 13.6067C33.5421 14.5244 33.7386 15.4982 33.7386 16.5281C33.7386 17.558 33.5421 18.5271 33.1491 19.4354C32.7561 20.3436 32.2227 21.1349 31.5489 21.8089C30.8751 22.4831 30.0797 23.0168 29.1627 23.4101C28.2456 23.8033 27.263 23.9999 26.215 23.9999C25.2043 23.9999 24.2639 23.808 23.3936 23.4241C22.5234 23.0402 21.7607 22.5205 21.1056 21.8651V23.6629H18.2983V4H21.1337ZM21.4565 18.4663C21.7092 19.0656 22.0601 19.5899 22.5093 20.0394C22.9585 20.4888 23.4825 20.8447 24.0814 21.1068C24.6804 21.369 25.326 21.5001 26.0185 21.5001C26.6923 21.5001 27.3286 21.369 27.9275 21.1068C28.5263 20.8447 29.0456 20.4889 29.4856 20.0394C29.9254 19.59 30.2763 19.0656 30.5383 18.4663C30.8003 17.8671 30.9313 17.221 30.9313 16.5281C30.9313 15.8352 30.8003 15.1845 30.5383 14.5758C30.2763 13.9672 29.9254 13.4382 29.4856 12.9888C29.0457 12.5394 28.5264 12.1882 27.9275 11.9354C27.3285 11.6827 26.6922 11.5562 26.0185 11.5562C25.3448 11.5562 24.7084 11.6826 24.1096 11.9354C23.5107 12.1883 22.9866 12.5394 22.5374 12.9888C22.0883 13.4382 21.7327 13.9672 21.4706 14.5758C21.2086 15.1845 21.0776 15.8352 21.0776 16.5281C21.0776 17.221 21.2039 17.8671 21.4565 18.4663Z" fill="#101010"/>
<path d="M35.3382 13.6338C35.7125 12.7349 36.2273 11.9437 36.8822 11.2602C37.5372 10.5767 38.314 10.0383 39.2123 9.64503C40.1107 9.25177 41.0839 9.05518 42.1319 9.05518C43.1613 9.05518 44.1158 9.24245 44.9955 9.61693C45.8751 9.99148 46.633 10.5112 47.2694 11.176C47.9057 11.8407 48.4017 12.6273 48.7572 13.5355C49.1128 14.4438 49.2906 15.4316 49.2906 16.499V17.426H37.6403C37.7339 18.0065 37.921 18.5449 38.2017 19.0411C38.4825 19.5373 38.8334 19.9681 39.2545 20.3332C39.6756 20.6985 40.1528 20.9841 40.6862 21.19C41.2196 21.396 41.7857 21.499 42.3846 21.499C44.0878 21.499 45.4634 20.7967 46.5115 19.3922L48.5608 20.909C47.8496 21.8641 46.97 22.6132 45.922 23.1562C44.8738 23.6993 43.6948 23.9708 42.3847 23.9708C41.3179 23.9708 40.3213 23.7835 39.3949 23.409C38.4685 23.0345 37.6637 22.5101 36.9806 21.836C36.2975 21.1618 35.7594 20.3706 35.3664 19.4624C34.9734 18.5542 34.7769 17.5663 34.7769 16.4989C34.7767 15.4877 34.964 14.5326 35.3382 13.6338ZM39.2825 12.5242C38.4871 13.189 37.9584 14.0738 37.6964 15.1787H46.4272C46.1839 14.0738 45.6645 13.189 44.8691 12.5242C44.0737 11.8594 43.1426 11.527 42.0759 11.527C41.009 11.527 40.0779 11.8594 39.2825 12.5242Z" fill="#101010"/>
<path d="M54.5971 12.8482C53.9982 13.5037 53.6987 14.3932 53.6987 15.5168V23.6629H50.8633V9.33705H53.6706V11.1067C54.0262 10.5262 54.4894 10.0674 55.0602 9.7303C55.631 9.39317 56.3095 9.22461 57.0956 9.22461H58.0781V11.8651H56.899C55.9633 11.8651 55.196 12.1928 54.5971 12.8482Z" fill="#101010"/>
</g>
</g>
</g>
<defs>
<clipPath id="clip0_1_436">
<rect width="58" height="28" fill="white" transform="translate(0.5)"/>
</clipPath>
<clipPath id="clip1_1_436">
<rect width="58" height="28" fill="white" transform="translate(0.5)"/>
</clipPath>
<clipPath id="clip2_1_436">
<rect width="58" height="28" fill="white" transform="translate(0.5)"/>
</clipPath>
</defs>
</svg>
