<svg width="52" height="53" viewBox="0 0 52 53" fill="none" xmlns="http://www.w3.org/2000/svg">
<g clip-path="url(#clip0_167_144)">
<g clip-path="url(#clip1_167_144)">
<path d="M36.4763 45.2409H15.6249C10.9084 45.2409 7 41.3325 7 36.6159V15.7645C7 11.048 10.9084 7.13965 15.6249 7.13965H36.3781C41.1909 7.13965 44.998 11.048 44.998 15.7645V36.5177C45.1013 41.3305 41.1929 45.2409 36.4763 45.2409Z" fill="#FFE6C9" stroke="#101010"/>
<path d="M38.0839 36.8214C40.5905 34.013 42.0945 30.3041 42.0945 26.1912C42.0945 22.0782 40.5905 18.4706 38.0839 15.5608L40.8913 12.7574L43.2977 10.348C42.8966 9.84668 42.3953 9.34535 41.894 8.94629L36.6831 14.1591C33.7714 11.6524 30.1648 10.1484 26.0519 10.1484C21.9389 10.1484 18.3314 11.6524 15.4216 14.1591L10.311 9.04355C9.8097 9.44762 9.30837 9.94896 8.9043 10.4502L14.0199 15.5608C11.5132 18.4716 10.0092 22.0782 10.0092 26.1912C10.0092 30.3041 11.5132 33.9117 14.0199 36.8214L8.9043 41.9319C9.30837 42.4333 9.8097 42.9346 10.311 43.3387L12.7154 40.9293L15.5239 38.1218C18.3314 40.6284 22.0412 42.1325 26.1541 42.1325C30.2621 42.1325 33.8737 40.6284 36.7794 38.1218L41.895 43.2365C42.3963 42.8374 42.8976 42.336 43.2967 41.8347L38.0839 36.8214ZM40.0892 26.1912C40.0892 29.7005 38.7857 32.9089 36.6821 35.4156L33.0705 31.807C34.2737 30.303 35.0759 28.2978 35.0759 26.1902C35.0759 24.0826 34.374 22.0771 33.0705 20.5731L36.5799 17.0638C38.7857 19.4742 40.0892 22.6818 40.0892 26.1912ZM19.0332 26.1912C19.0332 24.5849 19.5346 23.1831 20.4349 21.9799L24.6501 26.1912L20.4349 30.4023C19.5144 29.1924 19.0214 27.7114 19.0332 26.1912ZM26.0519 24.7893L21.8407 20.5741C23.0505 19.6536 24.5317 19.1607 26.0519 19.1725C27.6581 19.1725 29.0599 19.6738 30.2631 20.5741L26.0519 24.7893ZM26.0519 27.5928L30.2631 31.808C29.0532 32.7286 27.5721 33.2216 26.0519 33.2097C24.4456 33.2097 23.0439 32.7084 21.8407 31.808L26.0519 27.5928ZM27.4536 26.1912L31.6688 21.9799C32.5894 23.1897 33.0824 24.671 33.0705 26.1912C33.0705 27.7974 32.5692 29.1991 31.6688 30.4023L27.4536 26.1912ZM26.0519 12.1538C29.5612 12.1538 32.7697 13.4572 35.2764 15.5608L31.6678 19.1725C30.1638 17.9693 28.1585 17.1671 26.0509 17.1671C23.9433 17.1671 21.9379 17.8691 20.4339 19.1725L16.9246 15.6631C19.335 13.4572 22.5425 12.1538 26.0519 12.1538ZM12.0146 26.1912C12.0146 22.6818 13.318 19.4732 15.4216 16.9666L18.9309 20.4759C17.7288 21.9799 16.9256 23.9852 16.9256 26.0888C16.9256 28.1964 17.6315 30.2017 18.9309 31.7057L15.4216 35.2151C13.319 32.9089 12.0146 29.7005 12.0146 26.1912ZM26.0519 40.2284C22.5425 40.2284 19.334 38.925 16.8274 36.8214L20.3367 33.312C21.8407 34.5142 23.846 35.3173 25.9496 35.3173C28.0572 35.3173 30.0625 34.6115 31.5665 33.312L35.0759 36.8214C32.7697 38.924 29.5612 40.2284 26.0519 40.2284Z" fill="#EE5A29" stroke="#101010"/>
</g>
</g>
<defs>
<clipPath id="clip0_167_144">
<rect width="52" height="52" fill="white" transform="translate(0 0.139648)"/>
</clipPath>
<clipPath id="clip1_167_144">
<rect width="52" height="52" fill="white" transform="translate(0 0.139648)"/>
</clipPath>
</defs>
</svg>
