<svg width="19" height="18" viewBox="0 0 19 18" fill="none" xmlns="http://www.w3.org/2000/svg">
<path fill-rule="evenodd" clip-rule="evenodd" d="M5.8984 7.41818C5.99965 7.31705 6.1369 7.26025 6.28 7.26025C6.4231 7.26025 6.56035 7.31705 6.6616 7.41818L9.88 10.6366L13.0984 7.41818C13.2008 7.32279 13.3362 7.27086 13.4761 7.27333C13.616 7.2758 13.7494 7.33247 13.8484 7.43141C13.9473 7.53035 14.004 7.66383 14.0065 7.80372C14.0089 7.94362 13.957 8.07901 13.8616 8.18138L10.2616 11.7814C10.1604 11.8825 10.0231 11.9393 9.88 11.9393C9.7369 11.9393 9.59965 11.8825 9.4984 11.7814L5.8984 8.18138C5.79728 8.08013 5.74048 7.94288 5.74048 7.79978C5.74048 7.65668 5.79728 7.51943 5.8984 7.41818Z" fill="#212121"/>
</svg>
