<svg width="61" height="61" viewBox="0 0 61 61" fill="none" xmlns="http://www.w3.org/2000/svg">
<g clip-path="url(#clip0_1_660)">
<g clip-path="url(#clip1_1_660)">
<path d="M55.7513 35.473C55.7513 46.562 46.7619 55.5514 35.6729 55.5514C24.5839 55.5514 15.5945 46.562 15.5945 35.473C15.5945 24.3839 24.5839 15.3945 35.6729 15.3945C46.7619 15.3945 55.7513 24.3839 55.7513 35.473Z" fill="#FFE6C9" stroke="#101010" stroke-width="0.9375"/>
<path d="M32.5327 6.98828H11.22C8.99357 6.98828 7.18872 8.79313 7.18872 11.0195V32.3323C7.18872 34.5587 8.99357 36.3635 11.22 36.3635H32.5327C34.7591 36.3635 36.564 34.5587 36.564 32.3323V11.0195C36.564 8.79313 34.7591 6.98828 32.5327 6.98828Z" fill="#F8AD40" stroke="#101010" stroke-width="0.9375"/>
<path fill-rule="evenodd" clip-rule="evenodd" d="M37.0329 14.9701V32.333C37.0329 34.8182 35.0182 36.833 32.5329 36.833H15.17C15.1406 36.3834 15.1257 35.9299 15.1257 35.473C15.1257 24.1251 24.325 14.9258 35.6729 14.9258C36.1299 14.9258 36.5833 14.9407 37.0329 14.9701Z" fill="#EE5A29"/>
<mask id="mask0_1_660" style="mask-type:luminance" maskUnits="userSpaceOnUse" x="15" y="14" width="23" height="23">
<path fill-rule="evenodd" clip-rule="evenodd" d="M37.0329 14.9701V32.333C37.0329 34.8182 35.0182 36.833 32.5329 36.833H15.17C15.1406 36.3834 15.1257 35.9299 15.1257 35.473C15.1257 24.1251 24.325 14.9258 35.6729 14.9258C36.1299 14.9258 36.5833 14.9407 37.0329 14.9701Z" fill="white"/>
</mask>
<g mask="url(#mask0_1_660)">
<path d="M37.0329 14.9701H37.9704V14.0919L37.094 14.0346L37.0329 14.9701ZM15.17 36.833L14.2345 36.8941L14.2917 37.7705H15.17V36.833ZM36.0954 14.9701V32.333H37.9704V14.9701H36.0954ZM36.0954 32.333C36.0954 34.3004 34.5004 35.8955 32.5329 35.8955V37.7705C35.5359 37.7705 37.9704 35.336 37.9704 32.333H36.0954ZM32.5329 35.8955H15.17V37.7705H32.5329V35.8955ZM16.1055 36.7719C16.0775 36.3426 16.0632 35.9096 16.0632 35.473H14.1882C14.1882 35.9503 14.2038 36.4242 14.2345 36.8941L16.1055 36.7719ZM16.0632 35.473C16.0632 24.6429 24.8427 15.8633 35.6729 15.8633V13.9883C23.8073 13.9883 14.1882 23.6073 14.1882 35.473H16.0632ZM35.6729 15.8633C36.1094 15.8633 36.5425 15.8775 36.9717 15.9056L37.094 14.0346C36.6241 14.0039 36.1502 13.9883 35.6729 13.9883V15.8633Z" fill="#101010"/>
</g>
<path d="M30.5896 12.1445L11.9104 30.8238" stroke="#101010" stroke-width="0.9375"/>
<path d="M22.2013 19.0762H20.5315C19.7031 19.0762 19.0315 19.7477 19.0315 20.5762V22.246C19.0315 23.0744 19.7031 23.746 20.5315 23.746H22.2013C23.0297 23.746 23.7013 23.0744 23.7013 22.246V20.5762C23.7013 19.7477 23.0297 19.0762 22.2013 19.0762Z" fill="#212121"/>
<path d="M10.8995 31.8302C11.4466 32.3774 12.3337 32.3774 12.8808 31.8302C13.4279 31.2831 13.4279 30.3961 12.8808 29.849C12.3337 29.3019 11.4466 29.3019 10.8995 29.849C10.3524 30.3961 10.3524 31.2831 10.8995 31.8302Z" fill="#212121"/>
<path d="M30.0515 12.6796C30.5986 13.2267 31.4856 13.2267 32.0327 12.6796C32.5798 12.1325 32.5798 11.2455 32.0327 10.6984C31.4856 10.1513 30.5986 10.1513 30.0515 10.6984C29.5044 11.2455 29.5044 12.1325 30.0515 12.6796Z" fill="#212121"/>
</g>
</g>
<defs>
<clipPath id="clip0_1_660">
<rect width="60" height="60" fill="white" transform="translate(0.719971 0.520508)"/>
</clipPath>
<clipPath id="clip1_1_660">
<rect width="60" height="60" fill="white" transform="translate(0.719971 0.520508)"/>
</clipPath>
</defs>
</svg>
