<svg width="61" height="61" viewBox="0 0 61 61" fill="none" xmlns="http://www.w3.org/2000/svg">
<g clip-path="url(#clip0_1_650)">
<g clip-path="url(#clip1_1_650)">
<path d="M50.11 8.48926H12.61C9.55516 8.48926 7.07874 10.9657 7.07874 14.0205V47.0205C7.07874 50.0753 9.55516 52.5518 12.61 52.5518H50.11C53.1648 52.5518 55.6412 50.0753 55.6412 47.0205V14.0205C55.6412 10.9657 53.1648 8.48926 50.11 8.48926Z" fill="#FFE6C9" stroke="black" stroke-width="0.9375"/>
<path d="M7.07874 14.0205C7.07874 10.9657 9.55516 8.48926 12.61 8.48926H50.11C53.1648 8.48926 55.6412 10.9657 55.6412 14.0205V18.9748H7.07874V14.0205Z" fill="#F8AD40" stroke="black" stroke-width="0.9375"/>
<path d="M13.4749 13.7311C13.4749 14.3685 12.9582 14.885 12.321 14.885C11.6838 14.885 11.1671 14.3685 11.1671 13.7311C11.1671 13.0939 11.6838 12.5773 12.321 12.5773C12.9582 12.5773 13.4749 13.0939 13.4749 13.7311ZM19.1864 13.7311C19.1864 14.3685 18.6698 14.885 18.0325 14.885C17.3953 14.885 16.8786 14.3685 16.8786 13.7311C16.8786 13.0939 17.3953 12.5773 18.0325 12.5773C18.6698 12.5773 19.1864 13.0939 19.1864 13.7311ZM24.8979 13.7311C24.8979 14.3685 24.3814 14.885 23.7441 14.885C23.1068 14.885 22.5903 14.3685 22.5903 13.7311C22.5903 13.0939 23.1068 12.5773 23.7441 12.5773C24.3814 12.5773 24.8979 13.0939 24.8979 13.7311Z" fill="black" stroke="black" stroke-width="1.5"/>
<path d="M16.735 25.6455C16.735 25.0242 16.2313 24.5205 15.61 24.5205C14.9887 24.5205 14.485 25.0242 14.485 25.6455V32.9147C14.485 33.536 14.9887 34.0397 15.61 34.0397C16.2313 34.0397 16.735 33.536 16.735 32.9147V25.6455Z" fill="#EE5A29"/>
</g>
</g>
<defs>
<clipPath id="clip0_1_650">
<rect width="60" height="60" fill="white" transform="translate(0.609985 0.520508)"/>
</clipPath>
<clipPath id="clip1_1_650">
<rect width="60" height="60" fill="white" transform="translate(0.609985 0.520508)"/>
</clipPath>
</defs>
</svg>
