<svg width="52" height="53" viewBox="0 0 52 53" fill="none" xmlns="http://www.w3.org/2000/svg">
<g clip-path="url(#clip0_167_104)">
<g clip-path="url(#clip1_167_104)">
<path d="M11.2222 6.60938C8.62386 6.60938 6.5 8.73324 6.5 11.3316V40.8872C6.5 43.4855 8.62386 45.6094 11.2222 45.6094H40.7778C43.3761 45.6094 45.5 43.4855 45.5 40.8872V11.3316C45.5 8.73324 43.3761 6.60938 40.7778 6.60938H11.2222Z" fill="#FFE6C9" stroke="#101010" stroke-linejoin="round"/>
<path d="M24.9432 28.748V14.498H27.0543V25.5813L38.2453 20.939L39.0855 22.8348L24.9432 28.748Z" fill="#101010"/>
<path d="M18.399 38.3552L16.7101 37.0844L24.2045 27.692L13.0156 23.8899L13.649 21.9941L27.7934 26.6365L18.399 38.3552Z" fill="#101010"/>
<path d="M25.1787 27.8241L26.8275 26.5088L35.2677 37.0559L33.619 38.3754L25.1787 27.8241Z" fill="#101010"/>
<path d="M25.9974 18.1653C28.068 18.1653 29.6641 16.5692 29.6641 14.4986C29.6641 12.428 28.068 10.832 25.9974 10.832C23.9268 10.832 22.3307 12.428 22.3307 14.4986C22.3307 16.5692 23.9268 18.1653 25.9974 18.1653ZM38.6641 25.5542C40.7347 25.5542 42.3307 23.9581 42.3307 21.8875C42.3307 19.8169 40.7347 18.2208 38.6641 18.2208C36.5935 18.2208 34.9974 19.8169 34.9974 21.8875C34.9974 23.9581 36.5935 25.5542 38.6641 25.5542ZM25.9974 32.9431C29.2291 32.9431 31.7752 30.397 31.7752 27.1653C31.7752 23.9336 29.2291 21.3875 25.9974 21.3875C22.7657 21.3875 20.2196 23.9336 20.2196 27.1653C20.2196 30.397 22.7657 32.9431 25.9974 32.9431ZM13.3307 26.6097C15.4013 26.6097 16.9974 25.0137 16.9974 22.9431C16.9974 20.8725 15.4013 19.2764 13.3307 19.2764C11.2601 19.2764 9.66406 20.8725 9.66406 22.9431C9.66406 25.0137 11.2601 26.6097 13.3307 26.6097ZM17.553 41.3875C19.6235 41.3875 21.2196 39.7914 21.2196 37.7208C21.2196 35.6503 19.6235 34.0542 17.553 34.0542C15.4824 34.0542 13.8863 35.6503 13.8863 37.7208C13.8863 39.7914 15.4824 41.3875 17.553 41.3875ZM34.4418 41.3875C36.5124 41.3875 38.1085 39.7914 38.1085 37.7208C38.1085 35.6503 36.5124 34.0542 34.4418 34.0542C32.3713 34.0542 30.7752 35.6503 30.7752 37.7208C30.7752 39.7914 32.3713 41.3875 34.4418 41.3875Z" fill="#EE5A29" stroke="#101010" stroke-linejoin="round"/>
</g>
</g>
<defs>
<clipPath id="clip0_167_104">
<rect width="52" height="52" fill="white" transform="translate(0 0.109375)"/>
</clipPath>
<clipPath id="clip1_167_104">
<rect width="52" height="52" fill="white" transform="translate(0 0.109375)"/>
</clipPath>
</defs>
</svg>
