<svg width="45" height="14" viewBox="0 0 45 14" fill="none" xmlns="http://www.w3.org/2000/svg">
<g clip-path="url(#clip0_1_935)">
<path d="M0 8.547C0 11.9105 2.3681 14 5.3641 14C6.4176 14 7.4711 13.7494 8.239 13.1852V10.5574C7.53888 11.1701 6.63887 11.5057 5.7085 11.501C4.1517 11.501 2.9099 10.4048 2.9099 8.5547C2.9099 6.7053 4.1461 5.6294 5.7085 5.6294C6.64362 5.61114 7.55141 5.94522 8.2516 6.5653V3.9326C7.4886 3.3551 6.4316 3.1346 5.3781 3.1346C2.3681 3.136 0 5.2248 0 8.547ZM14.3451 3.136C11.2924 3.136 9.1602 5.3655 9.1602 8.5477C9.1602 11.7313 11.2868 14.0007 14.3444 14.0007C17.402 14.0007 19.5461 11.7502 19.5461 8.5477C19.5461 5.3459 17.4237 3.136 14.3451 3.136ZM14.3451 11.5528C12.887 11.5528 12.0757 10.3033 12.0757 8.5533C12.0757 6.8033 12.887 5.5685 14.3451 5.5685C15.8025 5.5685 16.611 6.818 16.611 8.5533C16.611 10.2886 15.8221 11.5528 14.3451 11.5528ZM27.8971 4.2308C27.5486 3.87953 27.1329 3.60196 26.6749 3.4146C26.2147 3.2263 25.7217 3.13159 25.2245 3.136C22.1466 3.136 20.4064 5.5832 20.4064 8.5477C20.4064 11.5486 22.1466 14.0007 25.2245 14.0007C25.7215 14.0007 26.2129 13.9034 26.6721 13.7158C27.1296 13.5285 27.5459 13.2531 27.8971 12.9052V13.7634H30.8329V0H27.8978V4.2294L27.8971 4.2308ZM27.8971 10.2802C27.7061 10.6425 27.4185 10.9449 27.0662 11.1538C26.7116 11.3647 26.3063 11.4753 25.8937 11.4737C24.2928 11.4737 23.3499 10.2228 23.3499 8.5477C23.3499 6.8733 24.3005 5.6434 25.893 5.6434C26.3081 5.64387 26.7152 5.75763 27.0704 5.9724C27.4239 6.1866 27.7109 6.4939 27.8978 6.8586L27.8971 10.2802ZM36.708 3.136C35.2912 3.136 33.9353 3.5154 33.1639 3.9928V6.4932C34.027 5.93568 35.0323 5.63825 36.0598 5.6364C37.5578 5.6364 38.43 6.2734 38.43 7.2884V7.8659C38.003 7.5656 36.9705 7.2485 36.0591 7.2485C33.7316 7.2485 31.9711 8.6002 31.9711 10.5903C31.9711 12.7407 33.7316 13.9538 35.8785 13.9538C37.0307 13.9538 38.0842 13.5555 38.4223 13.2188V13.776H41.2566V7.1155C41.2636 4.5885 39.6032 3.136 36.708 3.136ZM38.43 10.9354C38.1759 11.4933 37.3975 11.8328 36.5659 11.8328C35.6349 11.8328 34.6829 11.4534 34.6829 10.5588C34.6829 9.6628 35.6349 9.2855 36.5659 9.2855C37.3975 9.2855 38.1654 9.6229 38.43 10.1815V10.9354Z" fill="#101010"/>
</g>
<defs>
<clipPath id="clip0_1_935">
<rect width="45" height="14" fill="white"/>
</clipPath>
</defs>
</svg>
