<svg width="61" height="61" viewBox="0 0 61 61" fill="none" xmlns="http://www.w3.org/2000/svg">
<g clip-path="url(#clip0_1_677)">
<g clip-path="url(#clip1_1_677)">
<path d="M31.1901 6.51953C17.5121 6.51953 6.44019 17.5915 6.44019 31.2695C6.44019 44.9476 17.5121 56.0195 31.1901 56.0195C44.8683 56.0195 55.9401 44.9476 55.9401 31.2695C55.9401 17.5915 44.8683 6.51953 31.1901 6.51953Z" fill="#FFE6C9" stroke="#101010" stroke-width="0.9375"/>
<path d="M31.1896 11.4697C20.2328 11.4697 11.3896 20.3129 11.3896 31.2697C11.3896 42.2266 20.2328 51.0697 31.1896 51.0697C42.1465 51.0697 50.9896 42.2266 50.9896 31.2697C50.9896 20.3129 42.1465 11.4697 31.1896 11.4697ZM31.1896 46.1197C22.9529 46.1197 16.3396 39.5065 16.3396 31.2697C16.3396 23.0329 22.9529 16.4197 31.1896 16.4197C39.4264 16.4197 46.0396 23.0329 46.0396 31.2697C46.0396 39.5065 39.4264 46.1197 31.1896 46.1197ZM31.1896 21.3697C25.6766 21.3697 21.2896 25.7567 21.2896 31.2697C21.2896 36.7828 25.6766 41.1697 31.1896 41.1697C36.7027 41.1697 41.0896 36.7828 41.0896 31.2697C41.0896 25.7567 36.7027 21.3697 31.1896 21.3697ZM31.1896 36.2197C28.3855 36.2197 26.2396 34.0739 26.2396 31.2697C26.2396 28.4656 28.3855 26.3197 31.1896 26.3197C33.9938 26.3197 36.1396 28.4656 36.1396 31.2697C36.1396 34.0739 33.9938 36.2197 31.1896 36.2197Z" fill="#F8AD40" stroke="#101010" stroke-width="0.9375"/>
<path d="M51.7241 17.1362L51.7161 17.1441C51.2822 17.5769 50.4828 17.9871 49.4696 18.3551C48.4699 18.7183 47.3118 19.0232 46.2062 19.2689C45.102 19.5141 44.0581 19.6983 43.2897 19.8212C42.9843 19.8702 42.7226 19.9093 42.5186 19.9386C42.5481 19.7306 42.5876 19.4628 42.6371 19.1499C42.7601 18.3716 42.9445 17.3159 43.1898 16.204C43.4354 15.0904 43.7405 13.9289 44.1033 12.9358C44.4717 11.9271 44.88 11.1498 45.3052 10.7504L45.3137 10.7424L45.3218 10.7339C46.204 9.79468 47.332 9.13892 48.2529 8.7162C48.6996 8.51115 49.0926 8.36317 49.3772 8.26562V12.7059V13.0809H49.7522H54.1924C54.0949 13.3655 53.9469 13.7585 53.7418 14.2052C53.3191 15.126 52.6633 16.2541 51.7241 17.1362Z" fill="black" stroke="black" stroke-width="0.75"/>
<path d="M54.3298 8.12994C53.8372 7.63247 53.0923 7.63247 52.5997 8.12994L30.3247 30.4049C29.8273 30.8975 29.8273 31.6424 30.3247 32.135C30.571 32.3813 30.9435 32.5074 31.1898 32.5074C31.4361 32.5074 31.8085 32.3813 32.0548 32.135L54.3298 9.85997C54.8285 9.36744 54.8285 8.62247 54.3298 8.12994Z" fill="#EE5A29" stroke="#101010" stroke-width="0.9375"/>
</g>
</g>
<defs>
<clipPath id="clip0_1_677">
<rect width="60" height="60" fill="white" transform="translate(0.439941 0.520508)"/>
</clipPath>
<clipPath id="clip1_1_677">
<rect width="60" height="60" fill="white" transform="translate(0.439941 0.520508)"/>
</clipPath>
</defs>
</svg>
