<svg width="176" height="43" viewBox="0 0 176 43" fill="none" xmlns="http://www.w3.org/2000/svg">
<g clip-path="url(#clip0_1_734)">
<g clip-path="url(#clip1_1_734)">
<g clip-path="url(#clip2_1_734)">
<path d="M69.0916 15.7451H74.6457V33.2156H69.0916V15.7451Z" fill="#101010"/>
<path d="M75.8057 15.7452H81.1553V18.1337H81.2573C82.5523 16.2569 84.2219 15.2334 86.6413 15.2334C90.4574 15.2334 92.7063 17.9632 92.7063 21.853V33.2157H87.1523V22.9792C87.1523 21.1364 86.2324 19.8738 84.4265 19.8738C82.5865 19.8738 81.3597 21.4094 81.3597 23.559V33.2157H75.8057V15.7452Z" fill="#101010"/>
<path d="M75.2003 11.0707C75.2003 9.22798 73.7088 7.73438 71.8688 7.73438C70.0288 7.73438 68.5371 9.22798 68.5371 11.0707C68.5371 12.9132 70.0288 14.4068 71.8688 14.4068C73.7088 14.4068 75.2003 12.9132 75.2003 11.0707Z" fill="#101010"/>
<path d="M131.769 15.4923C131.611 15.478 131.429 15.4717 131.216 15.4717C129.104 15.4717 127.673 16.3929 126.446 18.4744H126.344V15.7447H121.028V33.215H126.582V25.367C126.582 21.7307 128.593 20.0456 131.769 20.3396V15.4923Z" fill="#101010"/>
<path d="M159.025 22.1932C156.81 21.784 154.834 21.6133 154.834 20.385C154.834 19.2928 155.891 18.7811 157.253 18.7811C158.787 18.7811 159.843 19.2588 160.047 20.8286H165.158C164.886 17.3822 162.228 15.2324 157.288 15.2324C153.164 15.2324 149.757 17.1433 149.757 20.8286C149.757 24.9229 152.994 25.7419 156.026 26.2538C158.344 26.6634 160.456 26.834 160.456 28.4035C160.456 29.5297 159.4 30.1438 157.731 30.1438C156.056 30.1438 154.948 29.434 154.608 27.9941H149.315C149.705 31.5856 152.853 33.7607 157.765 33.7607C162.331 33.7607 165.704 31.7817 165.704 27.96C165.704 23.4899 162.093 22.7051 159.025 22.1932Z" fill="#101010"/>
<path d="M140.385 19.1914C142.191 19.1914 143.486 20.5223 143.69 22.6039H136.807C137.182 20.5223 138.272 19.1914 140.385 19.1914ZM140.692 29.735C138.409 29.735 137.114 28.268 136.773 25.9135H149.313C149.346 22.3649 148.324 19.328 146.246 17.4173C144.746 16.0524 142.77 15.2334 140.283 15.2334C134.967 15.2334 131.321 19.2255 131.321 24.4463C131.321 29.735 134.865 33.7276 140.623 33.7276C142.838 33.7276 144.61 33.1474 146.075 32.1238C147.609 31.066 148.631 29.5647 149.006 27.9952H143.588C143.111 29.087 142.157 29.735 140.692 29.735Z" fill="#101010"/>
<path d="M175.485 29.0956C175.229 29.1058 174.883 29.1207 174.566 29.1207C173.373 29.1207 172.623 28.7794 172.623 27.4145V19.2251H175.485V15.7448H172.623V10.217H167.206V15.7448H165.501V19.2251H167.206V28.6088C167.206 32.3623 169.523 33.4199 172.76 33.4199C173.995 33.4199 174.929 33.3273 175.485 33.2185V29.0956Z" fill="#101010"/>
<path d="M102.625 29.1036C102.404 29.1121 102.148 29.1207 101.909 29.1207C100.716 29.1207 99.9666 28.7794 99.9666 27.4145V19.2251H102.625V15.7448H99.9666V10.217H94.5489V15.7448H92.7423V19.2251H94.5489V28.6088C94.5489 32.3623 96.8657 33.4199 100.103 33.4199C101.198 33.4199 102.056 33.3469 102.625 33.2545V29.1036Z" fill="#101010"/>
<path d="M114.723 22.6037C114.519 20.5223 113.224 19.1913 111.418 19.1913C109.305 19.1913 108.215 20.5223 107.84 22.6037H114.723ZM102.354 24.4462C102.354 19.2255 106 15.2334 111.315 15.2334C113.803 15.2334 115.779 16.0522 117.279 17.4171C119.357 19.328 120.379 22.3648 120.345 25.9135H107.806C108.146 28.2678 109.441 29.7351 111.724 29.7351C113.19 29.7351 114.144 29.0868 114.621 27.995H120.038C119.664 29.5645 118.642 31.0659 117.108 32.1237C115.643 33.1473 113.871 33.7275 111.656 33.7275C105.898 33.7275 102.354 29.7351 102.354 24.4462Z" fill="#101010"/>
<path d="M59.4462 20.2834C61.627 20.2834 62.8536 18.9868 62.8536 17.0416C62.8536 15.0968 61.5928 13.9025 59.4462 13.9025H55.1866V20.2834H59.4462ZM49.5637 8.81836H59.2087C62.173 8.81836 64.3538 9.6372 65.8531 11.0704C67.4205 12.5375 68.3064 14.6191 68.3064 17.0758C68.3064 21.7506 65.0694 25.0605 60.0605 25.0605H55.1866V33.2156H49.5637V8.81836Z" fill="#101010"/>
<path d="M20.9697 0.750977C9.38847 0.750977 0 10.1525 0 21.75C0 30.6463 5.52709 38.2513 13.3276 41.3109C13.1444 39.6495 12.9787 37.0943 13.4003 35.2806C13.7814 33.6416 15.8593 24.8427 15.8593 24.8427C15.8593 24.8427 15.232 23.5847 15.232 21.725C15.232 18.805 16.9221 16.625 19.0264 16.625C20.8155 16.625 21.6796 17.9702 21.6796 19.5831C21.6796 21.3848 20.5341 24.0786 19.9429 26.5749C19.4489 28.665 20.9896 30.3693 23.0481 30.3693C26.7752 30.3693 29.6401 26.4341 29.6401 20.7534C29.6401 15.7255 26.0325 12.2102 20.881 12.2102C14.9144 12.2102 11.4122 16.6918 11.4122 21.3232C11.4122 23.1281 12.1065 25.0634 12.9728 26.1154C13.1442 26.3233 13.1693 26.5055 13.1182 26.7177C12.9591 27.3809 12.6053 28.8073 12.5359 29.0993C12.4444 29.4836 12.232 29.5651 11.8345 29.38C9.21557 28.1591 7.57813 24.3247 7.57813 21.2448C7.57813 14.6208 12.3843 8.53735 21.4335 8.53735C28.7079 8.53735 34.361 13.7282 34.361 20.6654C34.361 27.9025 29.8042 33.7268 23.4796 33.7268C21.3547 33.7268 19.3571 32.6215 18.6733 31.3157C18.6733 31.3157 17.6218 35.3249 17.367 36.3075C16.8935 38.1315 15.6155 40.4178 14.7607 41.8126C16.7227 42.4209 18.8079 42.7491 20.9697 42.7491C32.5507 42.7491 41.9392 33.3474 41.9392 21.75C41.9392 10.1525 32.5507 0.750977 20.9697 0.750977Z" fill="#101010"/>
</g>
</g>
</g>
<defs>
<clipPath id="clip0_1_734">
<rect width="175.77" height="42" fill="white" transform="translate(0 0.75)"/>
</clipPath>
<clipPath id="clip1_1_734">
<rect width="175.77" height="42" fill="white" transform="translate(0 0.75)"/>
</clipPath>
<clipPath id="clip2_1_734">
<rect width="175.77" height="41.9981" fill="white" transform="translate(0 0.750977)"/>
</clipPath>
</defs>
</svg>
