<svg width="61" height="61" viewBox="0 0 61 61" fill="none" xmlns="http://www.w3.org/2000/svg">
<g clip-path="url(#clip0_1_619)">
<g clip-path="url(#clip1_1_619)">
<path d="M15.9993 8.97386L8.95246 16.0207C7.96395 17.0092 7.96395 18.6119 8.95246 19.6004L42.9202 53.5682C43.9087 54.5567 45.5115 54.5567 46.5 53.5682L53.5468 46.5214C54.5353 45.5328 54.5353 43.9301 53.5468 42.9416L19.579 8.97386C18.5905 7.98534 16.9878 7.98534 15.9993 8.97386Z" fill="#FFE6C9" stroke="#101010" stroke-width="0.9375"/>
<path d="M29.328 18.844L26.2461 21.9258" stroke="#212121" stroke-width="0.9375" stroke-linecap="round"/>
<path d="M50.17 39.6855L47.0881 42.7675" stroke="#212121" stroke-width="0.9375" stroke-linecap="round"/>
<path d="M24.1178 13.6318L21.0359 16.7138" stroke="#212121" stroke-width="0.9375" stroke-linecap="round"/>
<path d="M44.9593 34.4739L41.8774 37.5557" stroke="#212121" stroke-width="0.9375" stroke-linecap="round"/>
<path d="M21.5126 11.0272L19.5542 12.9857" stroke="#212121" stroke-width="0.9375" stroke-linecap="round"/>
<path d="M42.3547 31.8691L40.3962 33.8276" stroke="#212121" stroke-width="0.9375" stroke-linecap="round"/>
<path d="M26.7231 16.2374L24.7646 18.1959" stroke="#212121" stroke-width="0.9375" stroke-linecap="round"/>
<path d="M47.5646 37.0791L45.6062 39.0375" stroke="#212121" stroke-width="0.9375" stroke-linecap="round"/>
<path d="M42.2434 12.8184C44.3385 10.7233 47.7353 10.7233 49.8305 12.8184C51.9256 14.9135 51.9256 18.3104 49.8305 20.4055L22.9836 47.2524C22.8525 47.3834 22.6886 47.4768 22.5091 47.5225L13.0597 49.9311C12.8528 49.9838 12.665 49.7959 12.7177 49.5891L15.1264 40.1398C15.1721 39.9603 15.2654 39.7964 15.3965 39.6653L42.2434 12.8184Z" fill="#F8AD40" stroke="#101010" stroke-width="0.9375"/>
<path d="M22.1344 47.5394L14.3137 49.5925C13.5507 49.7928 12.8545 49.0971 13.0542 48.334L15.1009 40.5127L22.1344 47.5394Z" fill="#FFE6C9" stroke="#101010" stroke-width="0.9375"/>
<path d="M13.1092 49.999C12.8304 50.0737 12.5752 49.8186 12.6499 49.5397L13.6596 45.7715L16.8775 48.9893L13.1092 49.999Z" fill="#101010" stroke="#101010" stroke-width="0.75"/>
<path d="M39.323 15.7484L42.4991 12.6591L50.0652 20.0586L46.9002 23.3256L39.323 15.7484Z" fill="#EE5A29" stroke="#101010" stroke-width="0.9375"/>
</g>
</g>
<defs>
<clipPath id="clip0_1_619">
<rect width="60" height="60" fill="white" transform="translate(0.5 0.520508)"/>
</clipPath>
<clipPath id="clip1_1_619">
<rect width="60" height="60" fill="white" transform="translate(0.5 0.520508)"/>
</clipPath>
</defs>
</svg>
