<svg width="61" height="61" viewBox="0 0 61 61" fill="none" xmlns="http://www.w3.org/2000/svg">
<g clip-path="url(#clip0_1_638)">
<g clip-path="url(#clip1_1_638)">
<path d="M26.5468 7.26679C27.4242 2.96169 33.5758 2.96169 34.4532 7.2668C35.1943 10.9033 39.5137 12.4754 42.4188 10.166C45.8582 7.43208 50.5707 11.3864 48.4755 15.2482C46.7057 18.5101 49.0041 22.491 52.714 22.5894C57.106 22.7058 58.1743 28.7641 54.0868 30.3756C50.6343 31.7369 49.8361 36.2638 52.6149 38.7238C55.9046 41.6361 52.8286 46.9636 48.6616 45.5708C45.1419 44.3944 41.6206 47.3491 42.168 51.0196C42.816 55.3652 37.0353 57.4693 34.7384 53.7239C32.7984 50.5602 28.2016 50.5602 26.2616 53.7239C23.9647 57.4693 18.184 55.3652 18.832 51.0196C19.3794 47.3491 15.8581 44.3944 12.3384 45.5708C8.17134 46.9636 5.09547 41.636 8.38515 38.7238C11.1639 36.2638 10.3657 31.7369 6.91315 30.3756C2.82579 28.7641 3.89402 22.7058 8.28608 22.5894C11.9959 22.491 14.2943 18.5101 12.5246 15.2482C10.4293 11.3864 15.1418 7.43208 18.5812 10.166C21.4863 12.4754 25.8058 10.9032 26.5468 7.26679Z" fill="#FFE6C9" stroke="#101010" stroke-width="0.9375"/>
<path d="M23.082 28.5683C26.1004 28.5683 28.5473 26.1214 28.5473 23.103C28.5473 20.0846 26.1004 17.6377 23.082 17.6377C20.0636 17.6377 17.6167 20.0846 17.6167 23.103C17.6167 26.1214 20.0636 28.5683 23.082 28.5683Z" fill="#F8AD40" stroke="#101010" stroke-width="0.9375"/>
<path d="M23.0823 24.6123C23.9158 24.6123 24.5915 23.9366 24.5915 23.103C24.5915 22.2695 23.9158 21.5938 23.0823 21.5938C22.2487 21.5938 21.573 22.2695 21.573 23.103C21.573 23.9366 22.2487 24.6123 23.0823 24.6123Z" fill="#EE5A29" stroke="black" stroke-width="0.9375"/>
<path d="M36.9287 44.3928C39.9471 44.3928 42.394 41.9459 42.394 38.9275C42.394 35.9091 39.9471 33.4622 36.9287 33.4622C33.9103 33.4622 31.4634 35.9091 31.4634 38.9275C31.4634 41.9459 33.9103 44.3928 36.9287 44.3928Z" fill="#F8AD40" stroke="#101010" stroke-width="0.9375"/>
<path d="M36.9286 40.4366C37.7621 40.4366 38.4379 39.7609 38.4379 38.9274C38.4379 38.0938 37.7621 37.4181 36.9286 37.4181C36.095 37.4181 35.4193 38.0938 35.4193 38.9274C35.4193 39.7609 36.095 40.4366 36.9286 40.4366Z" fill="#EE5A29" stroke="black" stroke-width="0.9375"/>
<path d="M35.0995 18.4063C35.3464 18.0324 35.7644 17.8075 36.2123 17.8075H39.3435C40.4058 17.8075 41.0416 18.989 40.4563 19.8755L24.8313 43.5438C24.5845 43.9177 24.1665 44.1427 23.7185 44.1427H20.5874C19.5251 44.1427 18.8893 42.9611 19.4746 42.0746L35.0995 18.4063Z" fill="#F8AD40" stroke="black" stroke-width="0.9375"/>
</g>
</g>
<defs>
<clipPath id="clip0_1_638">
<rect width="60" height="60" fill="white" transform="translate(0.5 0.520508)"/>
</clipPath>
<clipPath id="clip1_1_638">
<rect width="60" height="60" fill="white" transform="translate(0.5 0.520508)"/>
</clipPath>
</defs>
</svg>
