<svg width="52" height="53" viewBox="0 0 52 53" fill="none" xmlns="http://www.w3.org/2000/svg">
<g clip-path="url(#clip0_167_88)">
<g clip-path="url(#clip1_167_88)">
<path d="M31.6088 7.62214C31.5146 7.52473 31.3849 7.46973 31.2494 7.46973H14.6249C13.7906 7.46973 12.994 7.81259 12.4094 8.41714C11.8253 9.02112 11.5 9.83684 11.5 10.684V43.2554C11.5 44.1026 11.8253 44.9183 12.4094 45.5223C12.994 46.1268 13.7906 46.4697 14.6249 46.4697H37.3742C38.2084 46.4697 39.005 46.1268 39.5897 45.5223C40.1738 44.9183 40.4991 44.1026 40.4991 43.2554V17.0173C40.4991 16.8876 40.4487 16.763 40.3585 16.6697L31.6088 7.62214Z" fill="#FFE6C9" stroke="#101010" stroke-linejoin="round"/>
<path d="M39.9997 17.5173C40.2004 17.5173 40.3817 17.3973 40.46 17.2125C40.5384 17.0277 40.4987 16.814 40.3591 16.6697L31.6094 7.62215C31.4678 7.47569 31.2514 7.42982 31.0625 7.50622C30.8736 7.58261 30.75 7.76598 30.75 7.96974V13.0173C30.75 15.5026 32.7647 17.5173 35.25 17.5173H39.9997Z" fill="#EE5A29" stroke="#101010" stroke-linejoin="round"/>
<path d="M18.1211 26.0654H33.8706V27.8749H18.1211V26.0654ZM18.1211 29.6845H33.8706V31.494H18.1211V29.6845ZM18.1211 33.3035H33.8706V35.113H18.1211V33.3035ZM18.1211 36.9225H26.8708V38.7321H18.1211V36.9225Z" fill="#101010"/>
</g>
</g>
<defs>
<clipPath id="clip0_167_88">
<rect width="52" height="52" fill="white" transform="translate(0 0.969727)"/>
</clipPath>
<clipPath id="clip1_167_88">
<rect width="52" height="52" fill="white" transform="translate(0 0.969727)"/>
</clipPath>
</defs>
</svg>
